ffmpeg started on 2025-06-19 at 10:59:59
Report written to "D:\Convert\FFMetrics\reports\ssim_report-6.txt"
Log level: 32
Command line:
ffmpeg -hide_banner -nostdin -i "G:\\\xc0\xed\xe8\xec\xe5\\[\xd2\xee\xef-4]\\RErideD - \xc4\xe5\xf0\xf0\xe8\xe4\xe0, \xef\xee\xea\xee\xf0\xe8\xe2\xf8\xe8\xe9 \xe2\xf0\xe5\xec\xff\\RErideD_Koku_Koe_no_Derrida_[11]_[AniLibria_TV]_[WEBRip_720p]_HEVC.mkv" -i "G:\\\xc0\xed\xe8\xec\xe5\\[\xd2\xee\xef-4]\\RErideD - \xc4\xe5\xf0\xf0\xe8\xe4\xe0, \xef\xee\xea\xee\xf0\xe8\xe2\xf8\xe8\xe9 \xe2\xf0\xe5\xec\xff\\RErideD_Koku_Koe_no_Derrida_[11]_[AniLibria_TV]_[WEBRip_720p].mkv" -lavfi "[0:v]settb=AVTB,setpts=PTS-STARTPTS,format=pix_fmts=yuv420p10,fps=24000/1001,scale=1280:720:flags=bicubic[main];[1:v]settb=AVTB,setpts=PTS-STARTPTS,format=pix_fmts=yuv420p,fps=24000/1001,scale=1280:720:flags=bicubic[ref];[main][ref]ssim=eof_action=endall:stats_file='D\\:/Convert/FFMetrics/logs/ssim_logfile-6.txt'" -f null -
Input #0, matroska,webm, from 'G:\Аниме\[Топ-4]\RErideD - Деррида, покоривший время\RErideD_Koku_Koe_no_Derrida_[11]_[AniLibria_TV]_[WEBRip_720p]_HEVC.mkv':
  Metadata:
    ENCODER         : Lavf61.7.100
  Duration: 00:23:40.13, start: -0.021000, bitrate: 765 kb/s
  Stream #0:0(jpn): Video: hevc (Main 10), yuv420p10le(tv, bt709, progressive), 1280x720 [SAR 1:1 DAR 16:9], 23.98 fps, 23.98 tbr, 1k tbn (default)
      Metadata:
        ENCODER         : Lavc61.19.100 libx265
        BPS             : 566886
        DURATION        : 00:23:40.043708333
        NUMBER_OF_FRAMES: 34047
        NUMBER_OF_BYTES : 100625406
        _STATISTICS_WRITING_APP: mkvpropedit v66.0.0 ('Josie') 64-bit
        _STATISTICS_WRITING_DATE_UTC: 2025-06-17 16:25:13
        _STATISTICS_TAGS: BPS DURATION NUMBER_OF_FRAMES NUMBER_OF_BYTES
  Stream #0:1(rus): Audio: aac (LC), 48000 Hz, stereo, fltp (default) (forced)
      Metadata:
        title           : AniLibria.TV
        ENCODER         : Lavc61.19.100 aac
        BPS             : 194545
        DURATION        : 00:23:40.074000000
        NUMBER_OF_FRAMES: 66567
        NUMBER_OF_BYTES : 34533645
        _STATISTICS_WRITING_APP: mkvpropedit v66.0.0 ('Josie') 64-bit
        _STATISTICS_WRITING_DATE_UTC: 2025-06-17 16:25:13
        _STATISTICS_TAGS: BPS DURATION NUMBER_OF_FRAMES NUMBER_OF_BYTES
  Stream #0:2(rus): Subtitle: ass (ssa) (default)
      Metadata:
        title           : Надписи
        BPS             : 8
        DURATION        : 00:19:15.960000000
        NUMBER_OF_FRAMES: 11
        NUMBER_OF_BYTES : 1241
        _STATISTICS_WRITING_APP: mkvpropedit v66.0.0 ('Josie') 64-bit
        _STATISTICS_WRITING_DATE_UTC: 2025-06-17 16:25:13
        _STATISTICS_TAGS: BPS DURATION NUMBER_OF_FRAMES NUMBER_OF_BYTES
  Stream #0:3(rus): Subtitle: ass (ssa)
      Metadata:
        title           : Полные субтитры
        BPS             : 97
        DURATION        : 00:21:57.160000000
        NUMBER_OF_FRAMES: 233
        NUMBER_OF_BYTES : 16050
        _STATISTICS_WRITING_APP: mkvpropedit v66.0.0 ('Josie') 64-bit
        _STATISTICS_WRITING_DATE_UTC: 2025-06-17 16:25:13
        _STATISTICS_TAGS: BPS DURATION NUMBER_OF_FRAMES NUMBER_OF_BYTES
Input #1, matroska,webm, from 'G:\Аниме\[Топ-4]\RErideD - Деррида, покоривший время\RErideD_Koku_Koe_no_Derrida_[11]_[AniLibria_TV]_[WEBRip_720p].mkv':
  Metadata:
    encoder         : libebml v1.4.2 + libmatroska v1.6.4
    creation_time   : 2024-12-15T11:01:48.000000Z
  Duration: 00:23:40.13, start: 0.000000, bitrate: 2062 kb/s
  Stream #1:0(jpn): Video: h264 (High), yuv420p(progressive), 1280x720 [SAR 1:1 DAR 16:9], 23.98 fps, 23.98 tbr, 1k tbn (default)
      Metadata:
        BPS             : 1861964
        DURATION        : 00:23:40.045000000
        NUMBER_OF_FRAMES: 34047
        NUMBER_OF_BYTES : 330509222
        _STATISTICS_WRITING_APP: mkvmerge v66.0.0 ('Josie') 64-bit
        _STATISTICS_WRITING_DATE_UTC: 2024-12-15 11:01:48
        _STATISTICS_TAGS: BPS DURATION NUMBER_OF_FRAMES NUMBER_OF_BYTES
  Stream #1:1(rus): Audio: aac (LC), 48000 Hz, stereo, fltp (default) (forced)
      Metadata:
        title           : AniLibria.TV
        BPS             : 195647
        DURATION        : 00:23:40.074000000
        NUMBER_OF_FRAMES: 66566
        NUMBER_OF_BYTES : 34729217
        _STATISTICS_WRITING_APP: mkvmerge v66.0.0 ('Josie') 64-bit
        _STATISTICS_WRITING_DATE_UTC: 2024-12-15 11:01:48
        _STATISTICS_TAGS: BPS DURATION NUMBER_OF_FRAMES NUMBER_OF_BYTES
  Stream #1:2(rus): Subtitle: ass (ssa) (default)
      Metadata:
        title           : Надписи
        BPS             : 8
        DURATION        : 00:19:15.960000000
        NUMBER_OF_FRAMES: 11
        NUMBER_OF_BYTES : 1241
        _STATISTICS_WRITING_APP: mkvmerge v66.0.0 ('Josie') 64-bit
        _STATISTICS_WRITING_DATE_UTC: 2024-12-15 11:01:48
        _STATISTICS_TAGS: BPS DURATION NUMBER_OF_FRAMES NUMBER_OF_BYTES
  Stream #1:3(rus): Subtitle: ass (ssa)
      Metadata:
        title           : Полные субтитры
        BPS             : 97
        DURATION        : 00:21:57.160000000
        NUMBER_OF_FRAMES: 233
        NUMBER_OF_BYTES : 16050
        _STATISTICS_WRITING_APP: mkvmerge v66.0.0 ('Josie') 64-bit
        _STATISTICS_WRITING_DATE_UTC: 2024-12-15 11:01:48
        _STATISTICS_TAGS: BPS DURATION NUMBER_OF_FRAMES NUMBER_OF_BYTES
  Stream #1:4: Attachment: ttf
      Metadata:
        filename        : OpenSans-Semibold.ttf
        mimetype        : application/x-truetype-font
  Stream #1:5: Attachment: ttf
      Metadata:
        filename        : v_MightyZeo2.0_v1.07.ttf
        mimetype        : application/x-truetype-font
  Stream #1:6: Attachment: ttf
      Metadata:
        filename        : OpenSans-Semibold.ttf
        mimetype        : application/x-truetype-font
Stream mapping:
  Stream #0:0 (hevc) -> settb:default
  Stream #1:0 (h264) -> settb:default
  ssim:default -> Stream #0:0 (wrapped_avframe)
  Stream #0:1 -> #0:1 (aac (native) -> pcm_s16le (native))
[swscaler @ 00000223192f2a80] No accelerated colorspace conversion found from yuv420p to bgr48le.
[swscaler @ 00000223193b8380] No accelerated colorspace conversion found from yuv420p to bgr48le.
[swscaler @ 0000022319579700] No accelerated colorspace conversion found from yuv420p to bgr48le.
[swscaler @ 0000022319612cc0] No accelerated colorspace conversion found from yuv420p to bgr48le.
[swscaler @ 00000223196b3ec0] No accelerated colorspace conversion found from yuv420p to bgr48le.
[swscaler @ 0000022319757040] No accelerated colorspace conversion found from yuv420p to bgr48le.
[swscaler @ 00000223197b4bc0] No accelerated colorspace conversion found from yuv420p to bgr48le.
[swscaler @ 0000022319822040] No accelerated colorspace conversion found from yuv420p to bgr48le.
[swscaler @ 000002231987dbc0] No accelerated colorspace conversion found from yuv420p to bgr48le.
[swscaler @ 0000022319914040] No accelerated colorspace conversion found from yuv420p to bgr48le.
[swscaler @ 000002231997f840] No accelerated colorspace conversion found from yuv420p to bgr48le.
[swscaler @ 00000223199a8bc0] No accelerated colorspace conversion found from yuv420p to bgr48le.
[swscaler @ 00000223199c2b80] No accelerated colorspace conversion found from yuv420p to bgr48le.
[swscaler @ 00000223199dcb40] No accelerated colorspace conversion found from yuv420p to bgr48le.
[swscaler @ 000002231db0d040] No accelerated colorspace conversion found from yuv420p to bgr48le.
[swscaler @ 000002231db86040] No accelerated colorspace conversion found from yuv420p to bgr48le.
Output #0, null, to 'pipe:':
  Metadata:
    encoder         : Lavf61.7.100
  Stream #0:0: Video: wrapped_avframe, yuv420p10le(tv, bt709, progressive), 1280x720 [SAR 1:1 DAR 16:9], q=2-31, 200 kb/s, 23.98 fps, 23.98 tbn
      Metadata:
        encoder         : Lavc61.19.100 wrapped_avframe
  Stream #0:1(rus): Audio: pcm_s16le, 48000 Hz, stereo, s16, 1536 kb/s (default) (forced)
      Metadata:
        title           : AniLibria.TV
        _STATISTICS_TAGS: BPS DURATION NUMBER_OF_FRAMES NUMBER_OF_BYTES
        BPS             : 194545
        DURATION        : 00:23:40.074000000
        NUMBER_OF_FRAMES: 66567
        NUMBER_OF_BYTES : 34533645
        _STATISTICS_WRITING_APP: mkvpropedit v66.0.0 ('Josie') 64-bit
        _STATISTICS_WRITING_DATE_UTC: 2025-06-17 16:25:13
        encoder         : Lavc61.19.100 pcm_s16le
frame=   74 fps=0.0 q=-0.0 size=N/A time=00:00:03.08 bitrate=N/A speed=5.95x    frame=  173 fps=169 q=-0.0 size=N/A time=00:00:07.21 bitrate=N/A speed=7.03x    frame=  258 fps=166 q=-0.0 size=N/A time=00:00:10.76 bitrate=N/A speed=6.94x    frame=  358 fps=174 q=-0.0 size=N/A time=00:00:14.93 bitrate=N/A speed=7.25x    frame=  445 fps=172 q=-0.0 size=N/A time=00:00:18.56 bitrate=N/A speed=7.18x    frame=  549 fps=177 q=-0.0 size=N/A time=00:00:22.89 bitrate=N/A speed=7.39x    frame=  644 fps=179 q=-0.0 size=N/A time=00:00:26.86 bitrate=N/A speed=7.45x    frame=  744 fps=180 q=-0.0 size=N/A time=00:00:31.03 bitrate=N/A speed=7.51x    frame=  840 fps=181 q=-0.0 size=N/A time=00:00:35.03 bitrate=N/A speed=7.55x    frame=  936 fps=182 q=-0.0 size=N/A time=00:00:39.03 bitrate=N/A speed=7.58x    frame= 1034 fps=182 q=-0.0 size=N/A time=00:00:43.12 bitrate=N/A speed= 7.6x    frame= 1131 fps=183 q=-0.0 size=N/A time=00:00:47.17 bitrate=N/A speed=7.62x    frame= 1225 fps=183 q=-0.0 size=N/A time=00:00:51.09 bitrate=N/A speed=7.62x    frame= 1324 fps=183 q=-0.0 size=N/A time=00:00:55.22 bitrate=N/A speed=7.65x    frame= 1417 fps=183 q=-0.0 size=N/A time=00:00:59.10 bitrate=N/A speed=7.64x    frame= 1513 fps=183 q=-0.0 size=N/A time=00:01:03.10 bitrate=N/A speed=7.65x    frame= 1613 fps=184 q=-0.0 size=N/A time=00:01:07.27 bitrate=N/A speed=7.67x    frame= 1709 fps=184 q=-0.0 size=N/A time=00:01:11.27 bitrate=N/A speed=7.68x    frame= 1812 fps=185 q=-0.0 size=N/A time=00:01:15.57 bitrate=N/A speed=7.71x    frame= 1909 fps=185 q=-0.0 size=N/A time=00:01:19.62 bitrate=N/A speed=7.72x    frame= 1994 fps=184 q=-0.0 size=N/A time=00:01:23.16 bitrate=N/A speed=7.68x    frame= 2101 fps=185 q=-0.0 size=N/A time=00:01:27.62 bitrate=N/A speed=7.72x    frame= 2199 fps=185 q=-0.0 size=N/A time=00:01:31.71 bitrate=N/A speed=7.74x    frame= 2292 fps=185 q=-0.0 size=N/A time=00:01:35.59 bitrate=N/A speed=7.72x    frame= 2385 fps=185 q=-0.0 size=N/A time=00:01:39.47 bitrate=N/A speed=7.72x    frame= 2484 fps=185 q=-0.0 size=N/A time=00:01:43.60 bitrate=N/A speed=7.73x    frame= 2577 fps=185 q=-0.0 size=N/A time=00:01:47.48 bitrate=N/A speed=7.72x    frame= 2681 fps=186 q=-0.0 size=N/A time=00:01:51.82 bitrate=N/A speed=7.74x    frame= 2780 fps=186 q=-0.0 size=N/A time=00:01:55.94 bitrate=N/A speed=7.76x    frame= 2878 fps=186 q=-0.0 size=N/A time=00:02:00.03 bitrate=N/A speed=7.76x    frame= 2973 fps=186 q=-0.0 size=N/A time=00:02:03.99 bitrate=N/A speed=7.76x    frame= 3060 fps=185 q=-0.0 size=N/A time=00:02:07.62 bitrate=N/A speed=7.74x    frame= 3169 fps=186 q=-0.0 size=N/A time=00:02:12.17 bitrate=N/A speed=7.76x    frame= 3264 fps=186 q=-0.0 size=N/A time=00:02:16.13 bitrate=N/A speed=7.76x    frame= 3364 fps=186 q=-0.0 size=N/A time=00:02:20.30 bitrate=N/A speed=7.77x    frame= 3461 fps=186 q=-0.0 size=N/A time=00:02:24.35 bitrate=N/A speed=7.78x    frame= 3556 fps=186 q=-0.0 size=N/A time=00:02:28.31 bitrate=N/A speed=7.78x    frame= 3653 fps=186 q=-0.0 size=N/A time=00:02:32.36 bitrate=N/A speed=7.77x    frame= 3753 fps=187 q=-0.0 size=N/A time=00:02:36.53 bitrate=N/A speed=7.78x    frame= 3850 fps=187 q=-0.0 size=N/A time=00:02:40.57 bitrate=N/A speed=7.79x    frame= 3947 fps=187 q=-0.0 size=N/A time=00:02:44.62 bitrate=N/A speed=7.78x    frame= 4051 fps=187 q=-0.0 size=N/A time=00:02:48.96 bitrate=N/A speed= 7.8x    frame= 4152 fps=187 q=-0.0 size=N/A time=00:02:53.17 bitrate=N/A speed=7.81x    frame= 4247 fps=187 q=-0.0 size=N/A time=00:02:57.13 bitrate=N/A speed=7.81x    frame= 4341 fps=187 q=-0.0 size=N/A time=00:03:01.05 bitrate=N/A speed= 7.8x    frame= 4436 fps=187 q=-0.0 size=N/A time=00:03:05.01 bitrate=N/A speed= 7.8x    frame= 4523 fps=187 q=-0.0 size=N/A time=00:03:08.64 bitrate=N/A speed=7.78x    frame= 4612 fps=186 q=-0.0 size=N/A time=00:03:12.35 bitrate=N/A speed=7.77x    frame= 4713 fps=186 q=-0.0 size=N/A time=00:03:16.57 bitrate=N/A speed=7.78x    frame= 4802 fps=186 q=-0.0 size=N/A time=00:03:20.28 bitrate=N/A speed=7.77x    frame= 4893 fps=186 q=-0.0 size=N/A time=00:03:24.07 bitrate=N/A speed=7.76x    frame= 5001 fps=186 q=-0.0 size=N/A time=00:03:28.58 bitrate=N/A speed=7.78x    frame= 5094 fps=186 q=-0.0 size=N/A time=00:03:32.46 bitrate=N/A speed=7.77x    frame= 5185 fps=186 q=-0.0 size=N/A time=00:03:36.25 bitrate=N/A speed=7.77x    frame= 5282 fps=186 q=-0.0 size=N/A time=00:03:40.30 bitrate=N/A speed=7.77x    frame= 5373 fps=186 q=-0.0 size=N/A time=00:03:44.09 bitrate=N/A speed=7.76x    frame= 5464 fps=186 q=-0.0 size=N/A time=00:03:47.89 bitrate=N/A speed=7.75x    frame= 5567 fps=186 q=-0.0 size=N/A time=00:03:52.19 bitrate=N/A speed=7.76x    frame= 5651 fps=186 q=-0.0 size=N/A time=00:03:55.69 bitrate=N/A speed=7.74x    frame= 5754 fps=186 q=-0.0 size=N/A time=00:03:59.98 bitrate=N/A speed=7.75x    frame= 5858 fps=186 q=-0.0 size=N/A time=00:04:04.32 bitrate=N/A speed=7.76x    frame= 5952 fps=186 q=-0.0 size=N/A time=00:04:08.24 bitrate=N/A speed=7.76x    frame= 6037 fps=186 q=-0.0 size=N/A time=00:04:11.79 bitrate=N/A speed=7.74x    frame= 6145 fps=186 q=-0.0 size=N/A time=00:04:16.29 bitrate=N/A speed=7.76x    frame= 6241 fps=186 q=-0.0 size=N/A time=00:04:20.30 bitrate=N/A speed=7.76x    frame= 6343 fps=186 q=-0.0 size=N/A time=00:04:24.55 bitrate=N/A speed=7.77x    frame= 6434 fps=186 q=-0.0 size=N/A time=00:04:28.35 bitrate=N/A speed=7.76x    frame= 6524 fps=186 q=-0.0 size=N/A time=00:04:32.10 bitrate=N/A speed=7.75x    frame= 6627 fps=186 q=-0.0 size=N/A time=00:04:36.40 bitrate=N/A speed=7.76x    frame= 6713 fps=186 q=-0.0 size=N/A time=00:04:39.98 bitrate=N/A speed=7.75x    frame= 6819 fps=186 q=-0.0 size=N/A time=00:04:44.40 bitrate=N/A speed=7.76x    frame= 6914 fps=186 q=-0.0 size=N/A time=00:04:48.37 bitrate=N/A speed=7.76x    frame= 7008 fps=186 q=-0.0 size=N/A time=00:04:52.29 bitrate=N/A speed=7.76x    frame= 7106 fps=186 q=-0.0 size=N/A time=00:04:56.37 bitrate=N/A speed=7.76x    frame= 7199 fps=186 q=-0.0 size=N/A time=00:05:00.25 bitrate=N/A speed=7.76x    frame= 7296 fps=186 q=-0.0 size=N/A time=00:05:04.30 bitrate=N/A speed=7.76x    frame= 7393 fps=186 q=-0.0 size=N/A time=00:05:08.34 bitrate=N/A speed=7.76x    frame= 7489 fps=186 q=-0.0 size=N/A time=00:05:12.35 bitrate=N/A speed=7.76x    frame= 7585 fps=186 q=-0.0 size=N/A time=00:05:16.35 bitrate=N/A speed=7.76x    frame= 7679 fps=186 q=-0.0 size=N/A time=00:05:20.27 bitrate=N/A speed=7.76x    frame= 7774 fps=186 q=-0.0 size=N/A time=00:05:24.24 bitrate=N/A speed=7.76x    frame= 7872 fps=186 q=-0.0 size=N/A time=00:05:28.32 bitrate=N/A speed=7.76x    frame= 7965 fps=186 q=-0.0 size=N/A time=00:05:32.20 bitrate=N/A speed=7.76x    frame= 8059 fps=186 q=-0.0 size=N/A time=00:05:36.12 bitrate=N/A speed=7.75x    frame= 8155 fps=186 q=-0.0 size=N/A time=00:05:40.13 bitrate=N/A speed=7.76x    frame= 8257 fps=186 q=-0.0 size=N/A time=00:05:44.38 bitrate=N/A speed=7.76x    frame= 8349 fps=186 q=-0.0 size=N/A time=00:05:48.22 bitrate=N/A speed=7.76x    frame= 8447 fps=186 q=-0.0 size=N/A time=00:05:52.31 bitrate=N/A speed=7.76x    frame= 8538 fps=186 q=-0.0 size=N/A time=00:05:56.10 bitrate=N/A speed=7.75x    frame= 8643 fps=186 q=-0.0 size=N/A time=00:06:00.48 bitrate=N/A speed=7.76x    frame= 8724 fps=186 q=-0.0 size=N/A time=00:06:03.86 bitrate=N/A speed=7.75x    frame= 8832 fps=186 q=-0.0 size=N/A time=00:06:08.36 bitrate=N/A speed=7.76x    frame= 8929 fps=186 q=-0.0 size=N/A time=00:06:12.41 bitrate=N/A speed=7.76x    frame= 9024 fps=186 q=-0.0 size=N/A time=00:06:16.37 bitrate=N/A speed=7.76x    frame= 9121 fps=186 q=-0.0 size=N/A time=00:06:20.42 bitrate=N/A speed=7.76x    frame= 9217 fps=186 q=-0.0 size=N/A time=00:06:24.42 bitrate=N/A speed=7.76x    frame= 9313 fps=186 q=-0.0 size=N/A time=00:06:28.42 bitrate=N/A speed=7.76x    frame= 9413 fps=186 q=-0.0 size=N/A time=00:06:32.60 bitrate=N/A speed=7.76x    frame= 9508 fps=186 q=-0.0 size=N/A time=00:06:36.56 bitrate=N/A speed=7.76x    frame= 9596 fps=186 q=-0.0 size=N/A time=00:06:40.23 bitrate=N/A speed=7.76x    frame= 9698 fps=186 q=-0.0 size=N/A time=00:06:44.48 bitrate=N/A speed=7.76x    frame= 9806 fps=186 q=-0.0 size=N/A time=00:06:48.99 bitrate=N/A speed=7.77x    frame= 9905 fps=186 q=-0.0 size=N/A time=00:06:53.12 bitrate=N/A speed=7.77x    frame=10001 fps=186 q=-0.0 size=N/A time=00:06:57.12 bitrate=N/A speed=7.77x    frame=10097 fps=186 q=-0.0 size=N/A time=00:07:01.12 bitrate=N/A speed=7.77x    frame=10195 fps=186 q=-0.0 size=N/A time=00:07:05.21 bitrate=N/A speed=7.77x    frame=10292 fps=186 q=-0.0 size=N/A time=00:07:09.26 bitrate=N/A speed=7.78x    frame=10389 fps=186 q=-0.0 size=N/A time=00:07:13.30 bitrate=N/A speed=7.78x    frame=10484 fps=186 q=-0.0 size=N/A time=00:07:17.27 bitrate=N/A speed=7.78x    frame=10581 fps=186 q=-0.0 size=N/A time=00:07:21.31 bitrate=N/A speed=7.78x    frame=10672 fps=186 q=-0.0 size=N/A time=00:07:25.11 bitrate=N/A speed=7.77x    frame=10773 fps=186 q=-0.0 size=N/A time=00:07:29.32 bitrate=N/A speed=7.78x    frame=10871 fps=186 q=-0.0 size=N/A time=00:07:33.41 bitrate=N/A speed=7.78x    frame=10966 fps=186 q=-0.0 size=N/A time=00:07:37.37 bitrate=N/A speed=7.78x    frame=11069 fps=187 q=-0.0 size=N/A time=00:07:41.66 bitrate=N/A speed=7.78x    frame=11168 fps=187 q=-0.0 size=N/A time=00:07:45.79 bitrate=N/A speed=7.78x    frame=11262 fps=187 q=-0.0 size=N/A time=00:07:49.71 bitrate=N/A speed=7.78x    frame=11364 fps=187 q=-0.0 size=N/A time=00:07:53.97 bitrate=N/A speed=7.79x    frame=11460 fps=187 q=-0.0 size=N/A time=00:07:57.97 bitrate=N/A speed=7.79x    frame=11561 fps=187 q=-0.0 size=N/A time=00:08:02.19 bitrate=N/A speed=7.79x    frame=11662 fps=187 q=-0.0 size=N/A time=00:08:06.40 bitrate=N/A speed=7.79x    frame=11757 fps=187 q=-0.0 size=N/A time=00:08:10.36 bitrate=N/A speed=7.79x    frame=11855 fps=187 q=-0.0 size=N/A time=00:08:14.45 bitrate=N/A speed=7.79x    frame=11944 fps=187 q=-0.0 size=N/A time=00:08:18.16 bitrate=N/A speed=7.79x    frame=12046 fps=187 q=-0.0 size=N/A time=00:08:22.41 bitrate=N/A speed=7.79x    frame=12140 fps=187 q=-0.0 size=N/A time=00:08:26.33 bitrate=N/A speed=7.79x    frame=12239 fps=187 q=-0.0 size=N/A time=00:08:30.46 bitrate=N/A speed=7.79x    frame=12336 fps=187 q=-0.0 size=N/A time=00:08:34.51 bitrate=N/A speed=7.79x    frame=12434 fps=187 q=-0.0 size=N/A time=00:08:38.60 bitrate=N/A speed=7.79x    frame=12529 fps=187 q=-0.0 size=N/A time=00:08:42.56 bitrate=N/A speed=7.79x    frame=12626 fps=187 q=-0.0 size=N/A time=00:08:46.60 bitrate=N/A speed=7.79x    frame=12721 fps=187 q=-0.0 size=N/A time=00:08:50.57 bitrate=N/A speed=7.79x    frame=12818 fps=187 q=-0.0 size=N/A time=00:08:54.61 bitrate=N/A speed=7.79x    frame=12920 fps=187 q=-0.0 size=N/A time=00:08:58.87 bitrate=N/A speed= 7.8x    frame=13014 fps=187 q=-0.0 size=N/A time=00:09:02.79 bitrate=N/A speed=7.79x    frame=13109 fps=187 q=-0.0 size=N/A time=00:09:06.75 bitrate=N/A speed=7.79x    frame=13214 fps=187 q=-0.0 size=N/A time=00:09:11.13 bitrate=N/A speed= 7.8x    frame=13300 fps=187 q=-0.0 size=N/A time=00:09:14.72 bitrate=N/A speed=7.79x    frame=13401 fps=187 q=-0.0 size=N/A time=00:09:18.93 bitrate=N/A speed=7.79x    frame=13500 fps=187 q=-0.0 size=N/A time=00:09:23.06 bitrate=N/A speed=7.79x    frame=13599 fps=187 q=-0.0 size=N/A time=00:09:27.19 bitrate=N/A speed= 7.8x    frame=13688 fps=187 q=-0.0 size=N/A time=00:09:30.90 bitrate=N/A speed=7.79x    frame=13779 fps=187 q=-0.0 size=N/A time=00:09:34.69 bitrate=N/A speed=7.79x    frame=13890 fps=187 q=-0.0 size=N/A time=00:09:39.32 bitrate=N/A speed= 7.8x    frame=13984 fps=187 q=-0.0 size=N/A time=00:09:43.24 bitrate=N/A speed= 7.8x    frame=14077 fps=187 q=-0.0 size=N/A time=00:09:47.12 bitrate=N/A speed=7.79x    frame=14180 fps=187 q=-0.0 size=N/A time=00:09:51.46 bitrate=N/A speed= 7.8x    frame=14275 fps=187 q=-0.0 size=N/A time=00:09:55.38 bitrate=N/A speed= 7.8x    frame=14374 fps=187 q=-0.0 size=N/A time=00:09:59.51 bitrate=N/A speed= 7.8x    frame=14470 fps=187 q=-0.0 size=N/A time=00:10:03.51 bitrate=N/A speed= 7.8x    frame=14571 fps=187 q=-0.0 size=N/A time=00:10:07.73 bitrate=N/A speed= 7.8x    frame=14670 fps=187 q=-0.0 size=N/A time=00:10:11.86 bitrate=N/A speed= 7.8x    frame=14759 fps=187 q=-0.0 size=N/A time=00:10:15.57 bitrate=N/A speed= 7.8x    frame=14855 fps=187 q=-0.0 size=N/A time=00:10:19.57 bitrate=N/A speed= 7.8x    frame=14962 fps=187 q=-0.0 size=N/A time=00:10:24.04 bitrate=N/A speed= 7.8x    frame=15060 fps=187 q=-0.0 size=N/A time=00:10:28.12 bitrate=N/A speed= 7.8x    frame=15157 fps=187 q=-0.0 size=N/A time=00:10:32.17 bitrate=N/A speed= 7.8x    frame=15253 fps=187 q=-0.0 size=N/A time=00:10:36.17 bitrate=N/A speed= 7.8x    frame=15351 fps=187 q=-0.0 size=N/A time=00:10:40.26 bitrate=N/A speed= 7.8x    frame=15449 fps=187 q=-0.0 size=N/A time=00:10:44.35 bitrate=N/A speed=7.81x    frame=15537 fps=187 q=-0.0 size=N/A time=00:10:48.02 bitrate=N/A speed= 7.8x    frame=15636 fps=187 q=-0.0 size=N/A time=00:10:52.15 bitrate=N/A speed= 7.8x    frame=15744 fps=187 q=-0.0 size=N/A time=00:10:56.65 bitrate=N/A speed=7.81x    frame=15842 fps=187 q=-0.0 size=N/A time=00:11:00.74 bitrate=N/A speed=7.81x    frame=15931 fps=187 q=-0.0 size=N/A time=00:11:04.45 bitrate=N/A speed=7.81x    frame=16027 fps=187 q=-0.0 size=N/A time=00:11:08.45 bitrate=N/A speed=7.81x    frame=16133 fps=187 q=-0.0 size=N/A time=00:11:12.88 bitrate=N/A speed=7.81x    frame=16232 fps=187 q=-0.0 size=N/A time=00:11:17.00 bitrate=N/A speed=7.81x    frame=16330 fps=187 q=-0.0 size=N/A time=00:11:21.09 bitrate=N/A speed=7.81x    frame=16432 fps=187 q=-0.0 size=N/A time=00:11:25.35 bitrate=N/A speed=7.81x    frame=16533 fps=187 q=-0.0 size=N/A time=00:11:29.56 bitrate=N/A speed=7.81x    frame=16629 fps=187 q=-0.0 size=N/A time=00:11:33.56 bitrate=N/A speed=7.81x    frame=16726 fps=187 q=-0.0 size=N/A time=00:11:37.61 bitrate=N/A speed=7.82x    frame=16824 fps=187 q=-0.0 size=N/A time=00:11:41.70 bitrate=N/A speed=7.82x    frame=16922 fps=187 q=-0.0 size=N/A time=00:11:45.78 bitrate=N/A speed=7.82x    frame=17023 fps=187 q=-0.0 size=N/A time=00:11:50.00 bitrate=N/A speed=7.82x    frame=17113 fps=187 q=-0.0 size=N/A time=00:11:53.75 bitrate=N/A speed=7.82x    frame=17203 fps=187 q=-0.0 size=N/A time=00:11:57.50 bitrate=N/A speed=7.81x    frame=17304 fps=187 q=-0.0 size=N/A time=00:12:01.72 bitrate=N/A speed=7.81x    frame=17407 fps=187 q=-0.0 size=N/A time=00:12:06.01 bitrate=N/A speed=7.82x    frame=17507 fps=187 q=-0.0 size=N/A time=00:12:10.18 bitrate=N/A speed=7.82x    frame=17606 fps=187 q=-0.0 size=N/A time=00:12:14.31 bitrate=N/A speed=7.82x    frame=17699 fps=187 q=-0.0 size=N/A time=00:12:18.19 bitrate=N/A speed=7.82x    frame=17798 fps=187 q=-0.0 size=N/A time=00:12:22.32 bitrate=N/A speed=7.82x    frame=17888 fps=187 q=-0.0 size=N/A time=00:12:26.07 bitrate=N/A speed=7.82x    frame=17978 fps=187 q=-0.0 size=N/A time=00:12:29.83 bitrate=N/A speed=7.81x    frame=18089 fps=187 q=-0.0 size=N/A time=00:12:34.46 bitrate=N/A speed=7.82x    frame=18185 fps=187 q=-0.0 size=N/A time=00:12:38.46 bitrate=N/A speed=7.82x    frame=18285 fps=188 q=-0.0 size=N/A time=00:12:42.63 bitrate=N/A speed=7.82x    frame=18380 fps=187 q=-0.0 size=N/A time=00:12:46.59 bitrate=N/A speed=7.82x    frame=18467 fps=187 q=-0.0 size=N/A time=00:12:50.22 bitrate=N/A speed=7.82x    frame=18573 fps=187 q=-0.0 size=N/A time=00:12:54.64 bitrate=N/A speed=7.82x    frame=18672 fps=187 q=-0.0 size=N/A time=00:12:58.77 bitrate=N/A speed=7.82x    frame=18762 fps=187 q=-0.0 size=N/A time=00:13:02.53 bitrate=N/A speed=7.82x    frame=18870 fps=188 q=-0.0 size=N/A time=00:13:07.03 bitrate=N/A speed=7.82x    frame=18967 fps=188 q=-0.0 size=N/A time=00:13:11.08 bitrate=N/A speed=7.82x    frame=19059 fps=187 q=-0.0 size=N/A time=00:13:14.91 bitrate=N/A speed=7.82x    frame=19166 fps=188 q=-0.0 size=N/A time=00:13:19.38 bitrate=N/A speed=7.82x    frame=19263 fps=188 q=-0.0 size=N/A time=00:13:23.42 bitrate=N/A speed=7.82x    frame=19361 fps=188 q=-0.0 size=N/A time=00:13:27.51 bitrate=N/A speed=7.82x    frame=19446 fps=187 q=-0.0 size=N/A time=00:13:31.06 bitrate=N/A speed=7.82x    frame=19537 fps=187 q=-0.0 size=N/A time=00:13:34.85 bitrate=N/A speed=7.82x    frame=19644 fps=188 q=-0.0 size=N/A time=00:13:39.31 bitrate=N/A speed=7.82x    frame=19745 fps=188 q=-0.0 size=N/A time=00:13:43.53 bitrate=N/A speed=7.82x    frame=19842 fps=188 q=-0.0 size=N/A time=00:13:47.57 bitrate=N/A speed=7.82x    frame=19941 fps=188 q=-0.0 size=N/A time=00:13:51.70 bitrate=N/A speed=7.82x    frame=20040 fps=188 q=-0.0 size=N/A time=00:13:55.83 bitrate=N/A speed=7.83x    frame=20128 fps=188 q=-0.0 size=N/A time=00:13:59.50 bitrate=N/A speed=7.82x    frame=20237 fps=188 q=-0.0 size=N/A time=00:14:04.05 bitrate=N/A speed=7.83x    frame=20329 fps=188 q=-0.0 size=N/A time=00:14:07.88 bitrate=N/A speed=7.82x    frame=20421 fps=188 q=-0.0 size=N/A time=00:14:11.72 bitrate=N/A speed=7.82x    frame=20524 fps=188 q=-0.0 size=N/A time=00:14:16.02 bitrate=N/A speed=7.82x    frame=20627 fps=188 q=-0.0 size=N/A time=00:14:20.31 bitrate=N/A speed=7.83x    frame=20724 fps=188 q=-0.0 size=N/A time=00:14:24.36 bitrate=N/A speed=7.83x    frame=20825 fps=188 q=-0.0 size=N/A time=00:14:28.57 bitrate=N/A speed=7.83x    frame=20911 fps=188 q=-0.0 size=N/A time=00:14:32.16 bitrate=N/A speed=7.83x    frame=21012 fps=188 q=-0.0 size=N/A time=00:14:36.37 bitrate=N/A speed=7.83x    frame=21112 fps=188 q=-0.0 size=N/A time=00:14:40.54 bitrate=N/A speed=7.83x    frame=21207 fps=188 q=-0.0 size=N/A time=00:14:44.50 bitrate=N/A speed=7.83x    frame=21306 fps=188 q=-0.0 size=N/A time=00:14:48.63 bitrate=N/A speed=7.83x    frame=21403 fps=188 q=-0.0 size=N/A time=00:14:52.68 bitrate=N/A speed=7.83x    frame=21499 fps=188 q=-0.0 size=N/A time=00:14:56.68 bitrate=N/A speed=7.83x    frame=21589 fps=188 q=-0.0 size=N/A time=00:15:00.44 bitrate=N/A speed=7.83x    frame=21693 fps=188 q=-0.0 size=N/A time=00:15:04.77 bitrate=N/A speed=7.83x    frame=21789 fps=188 q=-0.0 size=N/A time=00:15:08.78 bitrate=N/A speed=7.83x    frame=21892 fps=188 q=-0.0 size=N/A time=00:15:13.07 bitrate=N/A speed=7.83x    frame=21987 fps=188 q=-0.0 size=N/A time=00:15:17.04 bitrate=N/A speed=7.83x    frame=22087 fps=188 q=-0.0 size=N/A time=00:15:21.21 bitrate=N/A speed=7.83x    frame=22172 fps=188 q=-0.0 size=N/A time=00:15:24.75 bitrate=N/A speed=7.83x    frame=22278 fps=188 q=-0.0 size=N/A time=00:15:29.17 bitrate=N/A speed=7.83x    frame=22372 fps=188 q=-0.0 size=N/A time=00:15:33.09 bitrate=N/A speed=7.83x    frame=22471 fps=188 q=-0.0 size=N/A time=00:15:37.22 bitrate=N/A speed=7.83x    frame=22572 fps=188 q=-0.0 size=N/A time=00:15:41.44 bitrate=N/A speed=7.83x    frame=22669 fps=188 q=-0.0 size=N/A time=00:15:45.48 bitrate=N/A speed=7.83x    frame=22769 fps=188 q=-0.0 size=N/A time=00:15:49.65 bitrate=N/A speed=7.83x    frame=22871 fps=188 q=-0.0 size=N/A time=00:15:53.91 bitrate=N/A speed=7.83x    frame=22967 fps=188 q=-0.0 size=N/A time=00:15:57.91 bitrate=N/A speed=7.83x    frame=23065 fps=188 q=-0.0 size=N/A time=00:16:02.00 bitrate=N/A speed=7.83x    frame=23165 fps=188 q=-0.0 size=N/A time=00:16:06.17 bitrate=N/A speed=7.83x    frame=23262 fps=188 q=-0.0 size=N/A time=00:16:10.21 bitrate=N/A speed=7.84x    frame=23362 fps=188 q=-0.0 size=N/A time=00:16:14.39 bitrate=N/A speed=7.84x    frame=23461 fps=188 q=-0.0 size=N/A time=00:16:18.51 bitrate=N/A speed=7.84x    frame=23556 fps=188 q=-0.0 size=N/A time=00:16:22.48 bitrate=N/A speed=7.84x    frame=23659 fps=188 q=-0.0 size=N/A time=00:16:26.77 bitrate=N/A speed=7.84x    frame=23752 fps=188 q=-0.0 size=N/A time=00:16:30.65 bitrate=N/A speed=7.84x    frame=23843 fps=188 q=-0.0 size=N/A time=00:16:34.45 bitrate=N/A speed=7.84x    frame=23943 fps=188 q=-0.0 size=N/A time=00:16:38.62 bitrate=N/A speed=7.84x    frame=24032 fps=188 q=-0.0 size=N/A time=00:16:42.33 bitrate=N/A speed=7.83x    frame=24123 fps=188 q=-0.0 size=N/A time=00:16:46.13 bitrate=N/A speed=7.83x    frame=24222 fps=188 q=-0.0 size=N/A time=00:16:50.25 bitrate=N/A speed=7.83x    frame=24318 fps=188 q=-0.0 size=N/A time=00:16:54.26 bitrate=N/A speed=7.83x    frame=24405 fps=188 q=-0.0 size=N/A time=00:16:57.89 bitrate=N/A speed=7.83x    frame=24512 fps=188 q=-0.0 size=N/A time=00:17:02.35 bitrate=N/A speed=7.83x    frame=24610 fps=188 q=-0.0 size=N/A time=00:17:06.44 bitrate=N/A speed=7.83x    frame=24706 fps=188 q=-0.0 size=N/A time=00:17:10.44 bitrate=N/A speed=7.83x    frame=24797 fps=188 q=-0.0 size=N/A time=00:17:14.24 bitrate=N/A speed=7.83x    frame=24896 fps=188 q=-0.0 size=N/A time=00:17:18.37 bitrate=N/A speed=7.83x    frame=24995 fps=188 q=-0.0 size=N/A time=00:17:22.49 bitrate=N/A speed=7.83x    frame=25095 fps=188 q=-0.0 size=N/A time=00:17:26.67 bitrate=N/A speed=7.83x    frame=25194 fps=188 q=-0.0 size=N/A time=00:17:30.79 bitrate=N/A speed=7.83x    frame=25292 fps=188 q=-0.0 size=N/A time=00:17:34.88 bitrate=N/A speed=7.83x    frame=25377 fps=188 q=-0.0 size=N/A time=00:17:38.43 bitrate=N/A speed=7.83x    frame=25475 fps=188 q=-0.0 size=N/A time=00:17:42.51 bitrate=N/A speed=7.83x    frame=25573 fps=188 q=-0.0 size=N/A time=00:17:46.60 bitrate=N/A speed=7.83x    frame=25669 fps=188 q=-0.0 size=N/A time=00:17:50.61 bitrate=N/A speed=7.83x    frame=25759 fps=188 q=-0.0 size=N/A time=00:17:54.36 bitrate=N/A speed=7.83x    frame=25855 fps=188 q=-0.0 size=N/A time=00:17:58.36 bitrate=N/A speed=7.83x    frame=25949 fps=188 q=-0.0 size=N/A time=00:18:02.28 bitrate=N/A speed=7.83x    frame=26039 fps=188 q=-0.0 size=N/A time=00:18:06.04 bitrate=N/A speed=7.83x    frame=26142 fps=188 q=-0.0 size=N/A time=00:18:10.33 bitrate=N/A speed=7.83x    frame=26232 fps=188 q=-0.0 size=N/A time=00:18:14.09 bitrate=N/A speed=7.82x    frame=26333 fps=188 q=-0.0 size=N/A time=00:18:18.30 bitrate=N/A speed=7.83x    frame=26442 fps=188 q=-0.0 size=N/A time=00:18:22.85 bitrate=N/A speed=7.83x    frame=26537 fps=188 q=-0.0 size=N/A time=00:18:26.81 bitrate=N/A speed=7.83x    frame=26638 fps=188 q=-0.0 size=N/A time=00:18:31.02 bitrate=N/A speed=7.83x    frame=26734 fps=188 q=-0.0 size=N/A time=00:18:35.03 bitrate=N/A speed=7.83x    frame=26828 fps=188 q=-0.0 size=N/A time=00:18:38.95 bitrate=N/A speed=7.83x    frame=26926 fps=188 q=-0.0 size=N/A time=00:18:43.03 bitrate=N/A speed=7.83x    frame=27023 fps=188 q=-0.0 size=N/A time=00:18:47.08 bitrate=N/A speed=7.83x    frame=27110 fps=188 q=-0.0 size=N/A time=00:18:50.71 bitrate=N/A speed=7.83x    frame=27219 fps=188 q=-0.0 size=N/A time=00:18:55.25 bitrate=N/A speed=7.83x    frame=27302 fps=188 q=-0.0 size=N/A time=00:18:58.72 bitrate=N/A speed=7.83x    frame=27416 fps=188 q=-0.0 size=N/A time=00:19:03.47 bitrate=N/A speed=7.83x    frame=27514 fps=188 q=-0.0 size=N/A time=00:19:07.56 bitrate=N/A speed=7.83x    frame=27610 fps=188 q=-0.0 size=N/A time=00:19:11.56 bitrate=N/A speed=7.83x    frame=27696 fps=188 q=-0.0 size=N/A time=00:19:15.15 bitrate=N/A speed=7.83x    frame=27807 fps=188 q=-0.0 size=N/A time=00:19:19.78 bitrate=N/A speed=7.83x    frame=27903 fps=188 q=-0.0 size=N/A time=00:19:23.78 bitrate=N/A speed=7.83x    frame=28000 fps=188 q=-0.0 size=N/A time=00:19:27.83 bitrate=N/A speed=7.83x    frame=28096 fps=188 q=-0.0 size=N/A time=00:19:31.83 bitrate=N/A speed=7.83x    frame=28194 fps=188 q=-0.0 size=N/A time=00:19:35.92 bitrate=N/A speed=7.83x    frame=28289 fps=188 q=-0.0 size=N/A time=00:19:39.88 bitrate=N/A speed=7.83x    frame=28384 fps=188 q=-0.0 size=N/A time=00:19:43.84 bitrate=N/A speed=7.83x    frame=28486 fps=188 q=-0.0 size=N/A time=00:19:48.10 bitrate=N/A speed=7.83x    frame=28583 fps=188 q=-0.0 size=N/A time=00:19:52.14 bitrate=N/A speed=7.83x    frame=28681 fps=188 q=-0.0 size=N/A time=00:19:56.23 bitrate=N/A speed=7.83x    frame=28778 fps=188 q=-0.0 size=N/A time=00:20:00.28 bitrate=N/A speed=7.83x    frame=28862 fps=188 q=-0.0 size=N/A time=00:20:03.78 bitrate=N/A speed=7.83x    frame=28971 fps=188 q=-0.0 size=N/A time=00:20:08.33 bitrate=N/A speed=7.83x    frame=29067 fps=188 q=-0.0 size=N/A time=00:20:12.33 bitrate=N/A speed=7.83x    frame=29161 fps=188 q=-0.0 size=N/A time=00:20:16.25 bitrate=N/A speed=7.83x    frame=29261 fps=188 q=-0.0 size=N/A time=00:20:20.42 bitrate=N/A speed=7.83x    frame=29362 fps=188 q=-0.0 size=N/A time=00:20:24.64 bitrate=N/A speed=7.83x    frame=29461 fps=188 q=-0.0 size=N/A time=00:20:28.76 bitrate=N/A speed=7.83x    frame=29558 fps=188 q=-0.0 size=N/A time=00:20:32.81 bitrate=N/A speed=7.83x    frame=29660 fps=188 q=-0.0 size=N/A time=00:20:37.06 bitrate=N/A speed=7.84x    frame=29759 fps=188 q=-0.0 size=N/A time=00:20:41.19 bitrate=N/A speed=7.84x    frame=29850 fps=188 q=-0.0 size=N/A time=00:20:44.99 bitrate=N/A speed=7.84x    frame=29954 fps=188 q=-0.0 size=N/A time=00:20:49.33 bitrate=N/A speed=7.84x    frame=30051 fps=188 q=-0.0 size=N/A time=00:20:53.37 bitrate=N/A speed=7.84x    frame=30147 fps=188 q=-0.0 size=N/A time=00:20:57.38 bitrate=N/A speed=7.84x    frame=30247 fps=188 q=-0.0 size=N/A time=00:21:01.55 bitrate=N/A speed=7.84x    frame=30346 fps=188 q=-0.0 size=N/A time=00:21:05.68 bitrate=N/A speed=7.84x    frame=30439 fps=188 q=-0.0 size=N/A time=00:21:09.55 bitrate=N/A speed=7.84x    frame=30537 fps=188 q=-0.0 size=N/A time=00:21:13.64 bitrate=N/A speed=7.84x    frame=30635 fps=188 q=-0.0 size=N/A time=00:21:17.73 bitrate=N/A speed=7.84x    frame=30733 fps=188 q=-0.0 size=N/A time=00:21:21.82 bitrate=N/A speed=7.84x    frame=30831 fps=188 q=-0.0 size=N/A time=00:21:25.90 bitrate=N/A speed=7.84x    frame=30928 fps=188 q=-0.0 size=N/A time=00:21:29.95 bitrate=N/A speed=7.84x    frame=31011 fps=188 q=-0.0 size=N/A time=00:21:33.41 bitrate=N/A speed=7.83x    frame=31115 fps=188 q=-0.0 size=N/A time=00:21:37.75 bitrate=N/A speed=7.84x    frame=31222 fps=188 q=-0.0 size=N/A time=00:21:42.21 bitrate=N/A speed=7.84x    frame=31318 fps=188 q=-0.0 size=N/A time=00:21:46.22 bitrate=N/A speed=7.84x    frame=31418 fps=188 q=-0.0 size=N/A time=00:21:50.39 bitrate=N/A speed=7.84x    frame=31513 fps=188 q=-0.0 size=N/A time=00:21:54.35 bitrate=N/A speed=7.84x    frame=31604 fps=188 q=-0.0 size=N/A time=00:21:58.15 bitrate=N/A speed=7.84x    frame=31703 fps=188 q=-0.0 size=N/A time=00:22:02.27 bitrate=N/A speed=7.84x    frame=31802 fps=188 q=-0.0 size=N/A time=00:22:06.40 bitrate=N/A speed=7.84x    frame=31902 fps=188 q=-0.0 size=N/A time=00:22:10.57 bitrate=N/A speed=7.84x    frame=31999 fps=188 q=-0.0 size=N/A time=00:22:14.62 bitrate=N/A speed=7.84x    frame=32089 fps=188 q=-0.0 size=N/A time=00:22:18.37 bitrate=N/A speed=7.84x    frame=32179 fps=188 q=-0.0 size=N/A time=00:22:22.13 bitrate=N/A speed=7.84x    frame=32285 fps=188 q=-0.0 size=N/A time=00:22:26.55 bitrate=N/A speed=7.84x    frame=32386 fps=188 q=-0.0 size=N/A time=00:22:30.76 bitrate=N/A speed=7.84x    frame=32475 fps=188 q=-0.0 size=N/A time=00:22:34.47 bitrate=N/A speed=7.84x    frame=32578 fps=188 q=-0.0 size=N/A time=00:22:38.77 bitrate=N/A speed=7.84x    frame=32677 fps=188 q=-0.0 size=N/A time=00:22:42.90 bitrate=N/A speed=7.84x    frame=32769 fps=188 q=-0.0 size=N/A time=00:22:46.74 bitrate=N/A speed=7.84x    frame=32872 fps=188 q=-0.0 size=N/A time=00:22:51.03 bitrate=N/A speed=7.84x    frame=32966 fps=188 q=-0.0 size=N/A time=00:22:54.95 bitrate=N/A speed=7.84x    frame=33066 fps=188 q=-0.0 size=N/A time=00:22:59.12 bitrate=N/A speed=7.84x    frame=33161 fps=188 q=-0.0 size=N/A time=00:23:03.09 bitrate=N/A speed=7.84x    frame=33261 fps=188 q=-0.0 size=N/A time=00:23:07.26 bitrate=N/A speed=7.84x    frame=33356 fps=188 q=-0.0 size=N/A time=00:23:11.22 bitrate=N/A speed=7.84x    frame=33458 fps=188 q=-0.0 size=N/A time=00:23:15.47 bitrate=N/A speed=7.84x    frame=33553 fps=188 q=-0.0 size=N/A time=00:23:19.43 bitrate=N/A speed=7.84x    frame=33647 fps=188 q=-0.0 size=N/A time=00:23:23.36 bitrate=N/A speed=7.84x    frame=33751 fps=188 q=-0.0 size=N/A time=00:23:27.69 bitrate=N/A speed=7.84x    frame=33853 fps=188 q=-0.0 size=N/A time=00:23:31.95 bitrate=N/A speed=7.84x    frame=33949 fps=188 q=-0.0 size=N/A time=00:23:35.95 bitrate=N/A speed=7.84x    [Parsed_ssim_10 @ 000002230f0da440] SSIM Y:0.992424 (21.205697) U:0.993802 (22.077778) V:0.994407 (22.523550) All:0.992984 (21.539320)
[out#0/null @ 000002230c76c100] video:14630KiB audio:266268KiB subtitle:0KiB other streams:0KiB global headers:0KiB muxing overhead: unknown
frame=34047 fps=188 q=-0.0 Lsize=N/A time=00:23:40.04 bitrate=N/A speed=7.84x    
